{"title":"Say Yes to the Dress - Season 3 (2009)","uid":9697223,"size":1317764983,"categoryP":"video","categoryS":"tv_shows","magnet":"?xt=urn:btih:429e66928d35f293f468ed6f981c64fb9ad05e96&amp;dn=Say+Yes+to+the+Dress+-+Season+3+%282009%29&amp;tr=udp%3A%2F%2Ftracker.openbittorrent.com%3A80&amp;tr=udp%3A%2F%2Fopen.demonii.com%3A1337&amp;tr=udp%3A%2F%2Ftracker.coppersurfer.tk%3A6969&amp;tr=udp%3A%2F%2Fexodus.desync.com%3A6969","seeders":15,"leechers":3,"uploader":"April22","files":-1,"time":1393952704,"description":"Epiosdes: 1-6, 8-18 (18)\n\nEpisode list:\n3x01 - Changes and Challenges\n3x02 - In My Opinion\n3x03 - Once Upon a Dress\n3x04 - Bridal Wave\n3x05 - Playing Dress Up\n3x06 - The Dress Ties That Bind\n3x08 - Hot Dress, Cold Feet\n3x09 - There is a First for Everything\n3x10 - The Art of Negotiation\n3x11 - Getting in the Spirit\n3x12 - Second Time Around\n3x13 - Two For One\n3x14 - Missing Mom\n3x15 - Clicking With Brides\n3x16 - Family Dynamics\n3x17 - Indecisive Brides\n3x18 - Goals\n\nFormat                           : MPEG-4\nFormat profile                   : Base Media / Version 2\nCodec ID                         : mp42\nFile size                        : 69.6 MiB\nDuration                         : 21mn 22s\nOverall bit rate                 : 455 Kbps\nEncoded date                     : UTC 2012-11-24 10:52:59\nTagged date                      : UTC 2012-11-24 10:52:59\ngsst                             : 0\ngstd                             : 1282553\ngssd                             : B4A7DD823MH1372591322299936\ngshh                             :\n\nVideo\nID                               : 1\nFormat                           : AVC\nFormat/Info                      : Advanced Video Codec\nFormat profile                   : &lt;a class=&quot;__cf_email__&quot; href=&quot;/cdn-cgi/l/email-protection&quot; data-cfemail=&quot;3476554751585d5a517478071a04&quot;&gt;[email&amp;#160;protected]&lt;/a&gt;&lt;script cf-hash='f9e31' type=&quot;text/javascript&quot;&gt;\n/* &lt;![CDATA[ */!function(){try{var t=&quot;currentScript&quot;in document?document.currentScript:function(){for(var t=document.getElementsByTagName(&quot;script&quot;),e=t.length;e--;)if(t[e].getAttribute(&quot;cf-hash&quot;))return t[e]}();if(t&amp;&amp;t.previousSibling){var e,r,n,i,c=t.previousSibling,a=c.getAttribute(&quot;data-cfemail&quot;);if(a){for(e=&quot;&quot;,r=parseInt(a.substr(0,2),16),n=2;a.length-n;n+=2)i=parseInt(a.substr(n,2),16)^r,e+=String.fromCharCode(i);e=document.createTextNode(e),c.parentNode.replaceChild(e,c)}}}catch(u){}}();/* ]]&gt; */&lt;/script&gt;\nFormat settings, CABAC           : No\nFormat settings, ReFrames        : 1 frame\nCodec ID                         : avc1\nCodec ID/Info                    : Advanced Video Coding\nDuration                         : 21mn 22s\nBit rate mode                    : Variable\nBit rate                         : 357 Kbps\nMaximum bit rate                 : 946 Kbps\nWidth                            : 578 pixels\nHeight                           : 360 pixels\nDisplay aspect ratio             : 1.606\nFrame rate mode                  : Constant\nFrame rate                       : 23.976 fps\nColor space                      : YUV\nChroma subsampling               : 4:2:0\nBit depth                        : 8 bits\nScan type                        : Progressive\nBits/(Pixel*Frame)               : 0.071\nStream size                      : 54.5 MiB (78%)\nTagged date                      : UTC 2012-11-24 10:53:01\n\nAudio\nID                               : 2\nFormat                           : AAC\nFormat/Info                      : Advanced Audio Codec\nFormat profile                   : LC\nCodec ID                         : 40\nDuration                         : 21mn 22s\nBit rate mode                    : Variable\nBit rate                         : 96.0 Kbps\nMaximum bit rate                 : 103 Kbps\nChannel(s)                       : 2 channels\nChannel positions                : Front: L R\nSampling rate                    : 44.1 KHz\nCompression mode                 : Lossy\nStream size                      : 14.7 MiB (21%)\nTitle                            : IsoMedia File Produced by Google, 5-11-2011\nEncoded date                     : UTC 2012-11-24 10:53:00\nTagged date                      : UTC 2012-11-24 10:53:01\n","torrent":{"xt":"urn:btih:429e66928d35f293f468ed6f981c64fb9ad05e96","amp;dn":"Say+Yes+to+the+Dress+-+Season+3+%282009%29","amp;tr":["udp%3A%2F%2Ftracker.openbittorrent.com%3A80","udp%3A%2F%2Fopen.demonii.com%3A1337","udp%3A%2F%2Ftracker.coppersurfer.tk%3A6969","udp%3A%2F%2Fexodus.desync.com%3A6969"],"infoHash":"429e66928d35f293f468ed6f981c64fb9ad05e96","infoHashBuffer":{"type":"Buffer","data":[66,158,102,146,141,53,242,147,244,104,237,111,152,28,100,251,154,208,94,150]},"announce":[],"urlList":[]}}